<?xml version="1.0" standalone="no"?>
<!DOCTYPE svg PUBLIC "-//W3C//DTD SVG 20010904//EN"
 "http://www.w3.org/TR/2001/REC-SVG-20010904/DTD/svg10.dtd">
<svg version="1.0" xmlns="http://www.w3.org/2000/svg"
 width="120.000000pt" height="124.000000pt" viewBox="0 0 120.000000 124.000000"
 preserveAspectRatio="xMidYMid meet">
<g transform="translate(0.000000,124.000000) scale(0.100000,-0.100000)"
fill="#152135" stroke="none">
<path d="M0 620 l0 -620 600 0 600 0 0 620 0 620 -600 0 -600 0 0 -620z m628
483 c5 -17 -26 -29 -40 -15 -6 6 -7 15 -3 22 9 14 37 9 43 -7z m-104 -49 c30
-30 10 -74 -34 -74 -40 0 -58 32 -35 66 18 28 46 31 69 8z m230 -6 c20 -28 20
-33 0 -52 -21 -22 -61 -20 -74 3 -14 27 -13 37 6 55 22 22 50 20 68 -6z m-378
-27 c-9 -14 -33 -14 -41 -1 -4 6 -1 18 6 26 11 13 14 13 27 0 8 -8 11 -19 8
-25z m500 0 c-9 -14 -33 -14 -41 -1 -4 6 -1 18 6 26 11 13 14 13 27 0 8 -8 11
-19 8 -25z m-235 -42 c33 -17 42 -55 23 -95 -12 -25 -14 -38 -6 -46 15 -15 44
-2 41 19 -14 88 101 127 132 46 13 -34 0 -65 -36 -89 -14 -9 -25 -22 -25 -30
0 -28 23 -24 55 10 38 41 74 47 105 16 46 -46 14 -120 -53 -120 -30 0 -47 -24
-29 -42 7 -7 17 -5 33 6 33 23 66 20 94 -9 31 -30 31 -54 4 -90 -23 -28 -34
-29 -111 -10 -24 6 -28 4 -28 -14 0 -17 6 -21 35 -21 44 0 75 -29 75 -72 0
-42 -25 -68 -66 -68 -26 0 -39 7 -59 34 -16 21 -32 33 -41 29 -22 -8 -17 -22
22 -58 30 -29 35 -39 30 -62 -13 -52 -62 -76 -107 -53 -16 9 -19 22 -19 81 0
77 -17 124 -50 134 -18 6 -20 15 -20 121 l0 114 -35 0 -35 0 0 -114 c0 -106
-2 -115 -20 -121 -33 -10 -50 -57 -50 -134 0 -59 -3 -72 -19 -81 -45 -23 -94
1 -107 53 -5 23 0 33 30 62 39 36 44 50 22 58 -9 4 -25 -8 -41 -29 -45 -60
-125 -39 -125 33 0 44 30 73 75 73 29 0 35 4 35 21 0 18 -4 20 -27 14 -78 -19
-89 -18 -112 10 -27 36 -27 60 4 90 28 29 61 32 94 9 16 -11 26 -13 33 -6 18
18 1 42 -29 42 -47 0 -73 25 -73 70 0 29 6 43 22 54 36 26 67 19 103 -20 32
-34 55 -38 55 -10 0 8 -11 21 -25 30 -36 24 -49 55 -36 89 31 81 146 42 132
-46 -3 -21 26 -34 41 -19 8 8 6 21 -6 46 -33 69 28 131 95 95z m-319 -36 c24
-21 23 -45 -2 -68 -30 -27 -70 -7 -70 34 0 45 39 64 72 34z m619 7 c29 -16 26
-67 -6 -82 -46 -21 -86 40 -49 76 18 19 28 20 55 6z m-751 -100 c0 -13 -7 -20
-20 -20 -19 0 -27 20 -13 33 13 14 33 6 33 -13z m868 -3 c2 -12 -3 -17 -17
-17 -15 0 -21 6 -21 21 0 25 33 22 38 -4z m-843 -111 c23 -34 5 -66 -36 -66
-41 0 -61 40 -34 70 24 27 51 25 70 -4z m850 4 c27 -30 7 -70 -34 -70 -41 0
-59 32 -36 66 19 29 46 31 70 4z m-940 -130 c4 -6 1 -18 -6 -26 -11 -13 -14
-13 -27 0 -8 8 -11 19 -8 25 9 14 33 14 41 1z m1000 0 c4 -6 1 -18 -6 -26 -11
-13 -14 -13 -27 0 -8 8 -11 19 -8 25 9 14 33 14 41 1z m-913 -97 c22 -20 23
-37 2 -57 -24 -24 -63 -20 -75 8 -23 51 31 87 73 49z m852 1 c19 -18 20 -28 6
-55 -19 -35 -90 -15 -90 26 0 20 28 45 50 45 10 0 26 -7 34 -16z m-407 -86
c16 -17 18 -42 21 -184 l3 -164 -75 0 -76 0 0 158 c0 129 3 162 16 180 30 43
77 47 111 10z m-467 -78 c0 -13 -7 -20 -20 -20 -13 0 -20 7 -20 20 0 13 7 20
20 20 13 0 20 -7 20 -20z m868 -3 c2 -12 -3 -17 -17 -17 -15 0 -21 6 -21 21 0
25 33 22 38 -4z m-728 -32 c7 -8 10 -25 6 -40 -7 -29 -49 -44 -71 -25 -15 13
-21 61 -8 73 12 13 60 7 73 -8z m618 3 c17 -17 15 -53 -3 -68 -38 -31 -96 27
-65 65 15 18 51 20 68 3z"/>
</g>
</svg>
